name C:\Users\u0101727\Documents\MyRepositories\upper-imu-dc\OpenSim\subject0\MA\MA_Splines\angle_in_n6_dof6_2.mot
datacolumns 7
datarows 27
range 250.01000000 250.27000000
endheader 
time	clav_prot	clav_elev	scapula_abduction	scapula_elevation	scapula_upward_rot	scapula_winging	
        250.01000000	        -23.33033544	          2.15399008	          1.54938583	         -4.83889401	         23.68359952	         -2.69349413	
        250.02000000	        -16.90593547	          2.15399008	          1.54938583	         -4.83889401	         23.68359952	         -2.69349413	
        250.03000000	        -49.02793530	          7.05722688	          1.54938583	         -4.83889401	         23.68359952	         -2.69349413	
        250.04000000	        -42.60353533	          7.05722688	          1.54938583	         -4.83889401	         23.68359952	         -2.69349413	
        250.05000000	        -36.17913537	          7.05722688	          1.54938583	         -4.83889401	         23.68359952	         -2.69349413	
        250.06000000	        -29.75473540	          7.05722688	          1.54938583	         -4.83889401	         23.68359952	         -2.69349413	
        250.07000000	        -23.33033544	          7.05722688	          1.54938583	         -4.83889401	         23.68359952	         -2.69349413	
        250.08000000	        -16.90593547	          7.05722688	          1.54938583	         -4.83889401	         23.68359952	         -2.69349413	
        250.09000000	        -49.02793530	         11.96046367	          1.54938583	         -4.83889401	         23.68359952	         -2.69349413	
        250.10000000	        -42.60353533	         11.96046367	          1.54938583	         -4.83889401	         23.68359952	         -2.69349413	
        250.11000000	        -36.17913537	         11.96046367	          1.54938583	         -4.83889401	         23.68359952	         -2.69349413	
        250.12000000	        -29.75473540	         11.96046367	          1.54938583	         -4.83889401	         23.68359952	         -2.69349413	
        250.13000000	        -23.33033544	         11.96046367	          1.54938583	         -4.83889401	         23.68359952	         -2.69349413	
        250.14000000	        -16.90593547	         11.96046367	          1.54938583	         -4.83889401	         23.68359952	         -2.69349413	
        250.15000000	        -49.02793530	         16.86370047	          1.54938583	         -4.83889401	         23.68359952	         -2.69349413	
        250.16000000	        -42.60353533	         16.86370047	          1.54938583	         -4.83889401	         23.68359952	         -2.69349413	
        250.17000000	        -36.17913537	         16.86370047	          1.54938583	         -4.83889401	         23.68359952	         -2.69349413	
        250.18000000	        -29.75473540	         16.86370047	          1.54938583	         -4.83889401	         23.68359952	         -2.69349413	
        250.19000000	        -23.33033544	         16.86370047	          1.54938583	         -4.83889401	         23.68359952	         -2.69349413	
        250.20000000	        -16.90593547	         16.86370047	          1.54938583	         -4.83889401	         23.68359952	         -2.69349413	
        250.21000000	        -49.02793530	         -7.65248351	         11.28790885	         -4.83889401	         23.68359952	         -2.69349413	
        250.22000000	        -42.60353533	         -7.65248351	         11.28790885	         -4.83889401	         23.68359952	         -2.69349413	
        250.23000000	        -36.17913537	         -7.65248351	         11.28790885	         -4.83889401	         23.68359952	         -2.69349413	
        250.24000000	        -29.75473540	         -7.65248351	         11.28790885	         -4.83889401	         23.68359952	         -2.69349413	
        250.25000000	        -23.33033544	         -7.65248351	         11.28790885	         -4.83889401	         23.68359952	         -2.69349413	
        250.26000000	        -16.90593547	         -7.65248351	         11.28790885	         -4.83889401	         23.68359952	         -2.69349413	
        250.27000000	        -49.02793530	         -2.74924671	         11.28790885	         -4.83889401	         23.68359952	         -2.69349413	
